<?xml version="1.0" standalone="no"?>
<!DOCTYPE svg PUBLIC "-//W3C//DTD SVG 1.1//EN" "http://www.w3.org/Graphics/SVG/1.1/DTD/svg11.dtd" >
<svg xmlns="http://www.w3.org/2000/svg">
<metadata>Generated by IcoMoon</metadata>
<defs>
<font id="icomoon" horiz-adv-x="1024">
<font-face units-per-em="1024" ascent="960" descent="-64" />
<missing-glyph horiz-adv-x="1024" />
<glyph unicode="&#x20;" horiz-adv-x="512" d="" />
<glyph unicode="&#xe900;" glyph-name="bag" d="M783.059 719.059v144.203c0 53.308-44.393 96.738-98.967 96.738h-343.281c-54.513 0-98.906-43.43-98.906-96.738v-144.203h-181.67v-783.059h903.529v783.059h-180.706zM302.14 863.262c0 20.119 17.348 36.503 38.671 36.503h343.281c21.384 0 38.731-16.384 38.731-36.503v-144.203h-420.683v144.203zM903.529-3.765h-783.059v481.882h783.059v-481.882zM903.529 538.353h-783.059v120.471h121.434v-38.731h60.235v38.731h420.683v-38.731h60.235v38.731h120.471v-120.471z" />
<glyph unicode="&#xe901;" glyph-name="earth" horiz-adv-x="1025" d="M512 768c176.448 0 320-143.552 320-320s-143.552-320-320-320-320 143.552-320 320 143.552 320 320 320zM512 896c-247.424 0-448-200.576-448-448s200.576-448 448-448 448 200.576 448 448-200.576 448-448 448v0zM985.664 921.664c-25.984 26.048-63.296 38.336-108.608 38.336-68.416 0-155.2-28.608-248.896-79.936 54.336-14.656 104.832-38.848 148.928-71.424 39.296 14.976 73.792 23.36 100.032 23.36 8.96 0 14.528-0.96 17.536-1.728 15.040-46.208-44.224-250.816-279.168-485.76-184.192-184.128-375.104-280.512-468.544-280.512-8.96 0-14.528 0.96-17.6 1.728-5.824 17.856-0.32 59.584 21.888 117.312-32.576 44.096-56.704 94.528-71.36 148.928-85.504-155.84-106.88-292.416-41.6-357.696 26.048-25.984 63.36-38.272 108.672-38.272 141.44 0 360.96 119.936 559.040 318.016 261.632 261.632 386.816 560.512 279.68 667.648z" />
<glyph unicode="&#xe902;" glyph-name="house" d="M653.262 450.454h60.539v-100.917h-60.539v100.917zM754.161 450.454h60.541v-100.917h-60.541v100.917zM653.262 309.177h60.539v-100.901h-60.539v100.901zM754.161 309.177h60.541v-100.901h-60.541v100.901zM209.297 430.273h60.541v-100.915h-60.541v100.915zM209.297 571.535h60.541v-100.901h-60.541v100.901zM209.297 712.795h60.541v-100.9h-60.541v100.9zM431.279 127.556h-181.62v141.26h181.62v-141.26zM592.721 127.556h-60.541v659.906c0 38.138-21.993 66.595-62.968 66.595h-270.603c-29.671 0-49.85-29.875-49.85-66.595v-659.905h-30.271c-16.743 0-30.27-13.529-30.27-30.27 0-16.743 13.527-30.27 30.27-30.27h787.026c16.76 0 30.269 13.527 30.269 30.27 0 16.741-13.51 30.27-30.269 30.27h-30.271v339.024c0 35.725-28.85 64.593-64.576 64.593h-157.404c-21.789 0-60.937-17.358-60.937-60.541l0.396-343.078zM411.098 430.273h60.541v-100.915h-60.541v100.915zM310.198 571.535h60.541v-100.901h-60.541v100.901zM411.098 571.535h60.541v-100.901h-60.541v100.901zM411.098 712.795h60.541v-100.9h-60.541v100.9zM310.198 712.795h60.541v-100.9h-60.541v100.9zM310.198 430.273h60.541v-100.915h-60.541v100.915z" />
<glyph unicode="&#xe903;" glyph-name="interest" d="M813.056 713.582c-39.564 39.118-93.983 63.283-154.047 63.283-56.658 0-108.293-21.502-147.192-56.791-38.538 35.31-90.188 56.826-146.864 56.826-60.081 0-114.515-24.179-154.102-63.337-39.51-39.162-63.983-93.477-63.983-153.507s24.474-114.346 63.987-153.511c24.445-24.299 301.657-287.467 301.657-287.467l36.571 36.571s261.266 248.174 263.973 250.88c39.565 39.164 64.065 93.485 64.065 153.527s-24.499 114.362-64.046 153.509zM758.418 451.438l-231.497-217.015c-3.911-3.577-9.142-5.768-14.885-5.768s-10.973 2.191-14.901 5.783l-231.48 217c-28.528 26.108-46.351 63.507-46.351 105.070s17.823 78.962 46.244 104.973c59.573 56.051 155.463 57.88 218 4.632l28.453-24.43 28.453 24.283c62.61 53.321 158.574 51.419 217.966-4.462 61.806-57.856 61.806-152.137 0-210.066z" />
<glyph unicode="&#xe904;" glyph-name="jifen" d="M679.305 892.638c-7.887 4.267-48.614 7.887-90.505 7.887h-152.566c-42.020 0-82.747-3.491-90.505-7.887s-14.222-21.592-14.222-38.4c0-16.679 18.23-48.873 40.598-71.24 22.368-22.497 87.143-47.451 140.412-47.451s118.174 24.954 140.412 47.451c22.368 22.497 40.598 54.562 40.598 71.24 0 16.808-6.335 34.133-14.222 38.4v0zM512.517 717.059c-200.145 0-389.689-247.725-389.689-389.947 0-199.111 23.79-330.99 389.689-330.99s389.689 131.879 389.689 330.99c0 142.222-189.543 389.947-389.689 389.947zM459.507 507.604h61.802l-81.713-83.782h-61.673l81.584 83.782zM650.731 295.305l-43.184-36.978h-103.046v29.091l95.418 0.129-0.129 88.048h-89.6l-68.913-117.269h-54.949l68.913 117.269h-70.335v28.962h265.956v-109.253zM610.133 423.822l-81.584 83.911h61.673l81.713-83.911h-61.802z" />
<glyph unicode="&#xe905;" glyph-name="pc" horiz-adv-x="1104" d="M7.938 952.062v0 0zM1024 389.592v471.739q0 7.366-5.382 12.764t-12.764 5.382h-907.2q-7.366 0-12.764-5.382t-5.382-12.764v-471.739q0-7.366 5.382-12.764t12.764-5.382h907.2q7.366 0 12.764 5.382t5.382 12.764zM1096.569 861.347v-616.893q0-37.42-26.656-64.075t-64.075-26.656h-308.454q0-20.972 9.065-43.945t18.146-40.261 9.065-24.671q0-14.749-10.78-25.513t-25.513-10.78h-290.308q-14.749 0-25.513 10.78t-10.78 25.513q0 7.938 9.065 24.941t18.146 39.69 9.065 44.23h-308.454q-37.42 0-64.075 26.656t-26.656 64.075v616.893q0 37.42 26.656 64.075t64.075 26.656h907.2q37.42 0 64.075-26.656t26.656-64.075z" />
<glyph unicode="&#xe906;" glyph-name="star" d="M736.384 324.224l52.992-324.224-277.376 153.152-277.312-153.152 52.928 324.224-223.616 228.928 309.056 47.168 138.944 295.68 138.944-295.68 309.056-47.168-223.616-228.928zM616.256 551.104l-104.256 224.128-105.152-224.128-242.24-31.488 179.072-182.784-39.68-235.328 208 116.608 205.376-117.504-37.056 235.328 177.28 180.928-241.344 34.24z" />
<glyph unicode="&#xe907;" glyph-name="vip" d="M536.269 852.905c-225.275 0-407.895-182.62-407.895-407.895 0-225.27 182.62-407.89 407.895-407.89s407.895 182.62 407.895 407.89c0 225.28-182.62 407.895-407.895 407.895zM727.895 403.809c-31.596-46.008-75.013-101.268-112.932-133.898-27.494-23.66-78.295-60.268-118.313-53.56-103.101 17.27-81.147 269.752-150.584 326.707-31.754 9.211-47.068-39.48-64.532-10.706-27.433 22.835 26.44 62.72 53.775 85.688 33.802 28.401 73.651 68.854 118.313 51.272 86.968-34.243 24.627-241.772 107.556-286.935 42.86 34.381 90.88 91.197 80.671 160.676-8.12 23.199-47.386 15.831-69.908 10.711-1.157 105.969 208.543 187.192 225.864 42.844 9.411-88.356-69.908-192.799-69.908-192.799z" />
<glyph unicode="&#xe908;" glyph-name="xiaoxi" d="M293.663 560.338c-36.872 0-66.788-29.927-66.788-66.788 0-36.894 29.916-66.789 66.788-66.789 36.874 0 66.789 29.894 66.789 66.789-0.001 36.862-29.916 66.788-66.789 66.788zM516.29 560.338c-36.873 0-66.789-29.927-66.789-66.788 0-36.894 29.916-66.789 66.789-66.789s66.789 29.894 66.789 66.789c0 36.862-29.916 66.788-66.789 66.788zM516.29 894.279c-270.502 0-489.781-179.44-489.781-400.73 0-108.564 52.96-206.877 138.642-279.024l-49.59-210.758 263.327 105.304c43.634-10.381 89.66-16.252 137.402-16.252 270.502 0 489.781 179.384 489.781 400.73 0 221.29-219.279 400.73-489.781 400.73zM516.29 137.345c-42.439 0-85.181 5.065-127.055 15.067-3.413 0.804-6.892 1.217-10.349 1.217-5.631 0-11.261-1.065-16.523-3.194l-183.841-73.54 29.958 127.434c3.869 16.338-1.827 33.439-14.654 44.233-79.179 66.677-122.792 153.706-122.792 244.987 0 196.397 199.756 356.205 445.255 356.205 245.521 0 445.255-159.807 445.255-356.205 0-196.409-199.734-356.205-445.255-356.205zM738.918 560.338c-36.873 0-66.788-29.927-66.788-66.788 0-36.894 29.914-66.789 66.788-66.789 36.872 0 66.789 29.894 66.789 66.789-0.001 36.862-29.917 66.788-66.789 66.788z" />
<glyph unicode="&#xe909;" glyph-name="benke-" d="M514.127 832.199l-445.544-223.36 63.649-41.913v-403.050l63.649-31.821v394.127l317.957-203.184 262.84 169.968 183.001 118.989-445.551 220.242zM780.922 450.302l-266.794-174.576-269.454 174.576-16.966-162.164c31.827-24.775 222.773-156.083 286.425-219.731 63.65 63.649 254.594 194.865 286.422 219.665l-19.633 162.231z" />
<glyph unicode="&#xe90a;" glyph-name="location" d="M677.721 588.853c0 91.643-74.286 165.928-165.928 165.928s-165.928-74.286-165.928-165.928 74.285-165.928 165.928-165.928 165.928 74.286 165.928 165.928zM382.737 588.853c0 71.262 57.777 129.055 129.055 129.055s129.055-57.794 129.055-129.055c0-71.278-57.776-129.055-129.055-129.055s-129.055 57.777-129.055 129.055zM806.776 588.853c0 162.903-132.062 294.984-294.984 294.984s-294.983-132.080-294.983-294.984 294.984-516.222 294.984-516.222 294.983 353.319 294.983 516.222zM511.793 846.965c142.54 0 258.111-115.553 258.111-258.112s-258.111-460.912-258.111-460.912-258.112 318.355-258.112 460.912c0 142.559 115.57 258.112 258.112 258.112zM642.188 190.812c-8.075-11.081-15.95-21.71-23.523-31.794 78.723-9.069 132.802-27.838 132.802-49.514 0-30.536-107.305-55.31-239.675-55.31-132.369 0-239.675 24.773-239.675 55.31 0 21.676 54.080 40.444 132.803 49.514-7.572 10.084-15.449 20.713-23.523 31.794-86.981-15.532-146.153-46.113-146.153-81.308 0-50.917 123.817-92.182 276.548-92.182s276.547 41.266 276.547 92.182c0 35.195-59.172 65.776-146.153 81.308z" />
<glyph unicode="&#xe90b;" glyph-name="exchange" d="M813.486 333.501c-42.066-55.782-84.122-111.561-126.147-167.304l-0.476-0.625c-0.83-1.085-1.861-2.435-2.913-4.097-5.536-8.739-7.289-19.827-4.808-30.424 2.711-11.567 10.196-20.619 20.018-24.215 2.152-0.79 5.545-1.715 9.613-1.715 6.941 0 15.844 2.695 23.884 13.364 43.679 57.986 88.11 116.915 131.080 173.904 14.56 19.308 32.157 36.589 42.64 58.71 11.128 23.481 3.717 53.206-27.505 53.184-45.725-0.033-666.646-0.016-689.792 0-0.513 0-1.018-0.013-1.516-0.033-36.193 0.006-68.040 0.014-90.961 0.021-7.911 56.821-4.276 115.643 10.646 170.965 13.229 49.049 34.546 94.702 63.362 135.69 27.971 39.787 62.338 74.373 102.144 102.797 39.469 28.182 83.020 49.415 129.445 63.109 47.313 13.957 96.176 19.64 145.231 16.883 30.261-1.698 60.547-6.663 90.018-14.754 89.383-24.54 166.902-76.015 224.173-148.862l0.148-0.184c0.906-1.31 1.9-2.545 2.973-3.7l1.688-2.101h0.451c5.992-5.372 13.856-8.49 22.076-8.49 18.205 0 33.018 14.812 33.018 33.017 0 8.736-3.499 17.154-9.647 23.32-23.852 30.141-51.278 57.523-81.527 81.393-52.18 41.177-111.397 71.051-176.006 88.789-64.61 17.737-130.778 22.289-196.669 13.524-63.626-8.461-124.29-28.919-180.309-60.804-56.019-31.884-104.584-73.6-144.346-123.987-41.177-52.181-71.051-111.398-88.79-176.007-17.738-64.609-22.289-130.778-13.527-196.669 0.288-2.171 0.561-4.385 0.838-6.625 1.407-11.37 3.002-24.259 7.090-36.006 4.145-11.906 14.397-20.189 26.837-21.733 0.292-0.048 0.587-0.091 0.887-0.13 1.894-0.233 3.489-0.218 4.563-0.208l360.209 0.003c77.861 0.001 292.611 0 381.907 0zM992.862 509.623c-0.288 2.172-0.561 4.387-0.84 6.629-1.406 11.37-3.002 24.256-7.089 36.004-4.143 11.9-14.389 20.182-26.822 21.73-0.297 0.050-0.598 0.094-0.901 0.132-1.906 0.236-3.509 0.219-4.547 0.209l-0.462-0.004-440.016 0.001c-97.415 0-234.747 0-301.654 0 42.065 55.782 84.122 111.561 126.142 167.299l0.467 0.614c0.835 1.090 1.872 2.448 2.926 4.115 5.537 8.741 7.289 19.828 4.808 30.423-2.71 11.567-10.194 20.619-20.018 24.218-5.824 2.134-20.747 5.273-33.497-11.649-43.142-57.275-87.018-115.465-129.494-171.8 0 0-40.013-53.070-40.124-53.219-10.713-14.209-11.651-37.422 0.513-51.116 7.601-8.556 17.905-9.664 28.574-9.66 15.126 0.005 30.252 0.006 45.378 0.008 25.392 0.003 50.785 0.004 76.177 0.005 32.353 0.001 64.705 0.001 97.058 0.003 36.006 0 72.013 0 108.019 0 36.354 0 72.709-0.001 109.063-0.001 33.395-0.001 66.792-0.001 100.188-0.004 27.131-0.001 54.263-0.003 81.394-0.004 17.561-0.001 35.121-0.003 52.682-0.005 4.716-0.001 9.432 0 14.149-0.004 0.513 0 1.019 0.011 1.522 0.033 36.189-0.006 68.035-0.014 90.956-0.021 7.911-56.821 4.275-115.643-10.646-170.965-13.229-49.049-34.546-94.702-63.362-135.69-27.97-39.786-62.337-74.373-102.145-102.797-39.468-28.18-83.019-49.414-129.443-63.109-47.312-13.957-96.178-19.639-145.232-16.883-30.261 1.698-60.548 6.663-90.020 14.754-89.384 24.54-166.901 76.015-224.173 148.862l-0.144 0.179c-0.906 1.313-1.903 2.55-2.978 3.707l-1.686 2.098h-0.451c-5.992 5.372-13.858 8.49-22.077 8.49-18.205 0-33.017-14.81-33.017-33.017 0-8.736 3.499-17.154 9.645-23.319 23.853-30.143 51.276-57.521 81.527-81.394 52.18-41.177 111.397-71.050 176.006-88.789 43.319-11.894 87.33-17.858 131.496-17.858 21.707 0.001 43.461 1.443 65.174 4.33 63.626 8.461 124.291 28.919 180.309 60.804s104.584 73.601 144.346 123.987c41.18 52.184 71.052 111.401 88.789 176.007 17.74 64.61 22.29 130.779 13.528 196.67z" />
<glyph unicode="&#xe90c;" glyph-name="coin" d="M898.143 473.153c0 24.482-9.947 58.749-53.163 91.938 34.698 26.76 53.163 58.158 53.163 91.833 0 51.645-43.416 97.939-122.248 130.354-70.642 29.047-163.937 45.044-262.699 45.044s-192.060-15.997-262.702-45.044c-78.831-32.414-122.246-78.709-122.246-130.354 0-33.667 18.455-65.059 53.14-91.815-42.978-32.961-53.139-67.085-53.14-91.955 0-33.191 17.934-64.169 51.674-90.677-41.747-32.609-51.674-66.238-51.674-90.824 0-51.645 43.415-97.939 122.246-130.354 70.642-29.047 163.938-45.044 262.701-45.044 98.762 0 192.058 15.997 262.7 45.044 78.832 32.415 122.248 78.709 122.248 130.354 0 24.204-9.72 57.97-51.699 90.804 33.756 26.512 51.699 57.499 51.699 90.697zM272.599 733.518c63.793 26.23 149.239 40.676 240.598 40.676 91.356 0 176.801-14.446 240.594-40.676 53.993-22.201 86.227-50.834 86.227-76.594s-32.234-54.393-86.227-76.594c-63.793-26.23-149.238-40.676-240.594-40.676-91.359 0-176.804 14.446-240.598 40.676-53.992 22.201-86.225 50.834-86.225 76.594s32.233 54.394 86.225 76.594zM250.495 526.57c70.642-29.048 163.939-45.044 262.702-45.044s192.057 15.996 262.699 45.044c4.711 1.938 9.294 3.925 13.751 5.961l-0.12-0.206c32.559-18.969 50.491-39.984 50.491-59.173 0-25.76-32.234-54.393-86.227-76.593-63.793-26.23-149.238-40.676-240.595-40.676-91.358 0-176.804 14.446-240.597 40.676-53.992 22.201-86.225 50.834-86.225 76.593 0 19.124 18.339 40.444 50.648 59.254 4.368-1.991 8.857-3.938 13.472-5.836zM840.017 291.653c0-25.761-32.234-54.393-86.227-76.594-63.793-26.23-149.238-40.676-240.595-40.676s-176.804 14.446-240.597 40.676c-53.992 22.2-86.225 50.834-86.225 76.594 0 18.693 17.515 39.486 48.478 57.98 5.050-2.339 10.26-4.62 15.642-6.833 70.642-29.047 163.938-45.044 262.701-45.044s192.058 15.997 262.7 45.044c5.383 2.213 10.593 4.493 15.642 6.834 31.278-18.656 48.479-39.193 48.479-57.981z" />
<glyph unicode="&#xe90d;" glyph-name="jianli-" d="M736.142 228.409h-448.284c-12.516 0-22.756-10.24-22.756-22.756s10.24-22.756 22.756-22.756h448.284c12.516 0 22.756 10.24 22.756 22.756s-10.24 22.756-22.756 22.756v0zM265.102 531.058v0c0-12.516 10.24-22.756 22.756-22.756h448.284c12.516 0 22.756 10.24 22.756 22.756s-10.24 22.756-22.756 22.756h-448.284c-12.516 0-22.756-10.24-22.756-22.756v0zM939.804 659.627v0l-279.893 278.756c-6.827 6.827-15.929 11.378-27.307 11.378h-456.249c-28.444 0-54.613-11.378-72.818-29.582-18.204-20.48-30.72-45.511-30.72-73.956v-796.444c0-28.444 11.378-54.613 30.72-72.818v0c18.204-18.204 44.373-30.72 71.68-30.72h671.289c27.307 0 53.476 11.378 71.68 29.582v1.138c19.342 18.204 30.72 44.373 30.72 72.818v582.542c2.276 9.102-2.276 19.342-9.102 27.307v0zM656.498 833.707v0l177.493-177.493h-136.533c-10.24 0-21.618 4.551-29.582 11.378v1.138c-7.964 6.827-11.378 17.067-11.378 28.444v136.533zM873.813 49.778v0c0-6.827-2.276-13.653-7.964-18.204v0c-4.551-4.551-11.378-6.827-18.204-6.827h-671.289c-6.827 0-13.653 2.276-18.204 6.827v0c-4.551 4.551-7.964 11.378-7.964 18.204v796.444c0 6.827 2.276 13.653 7.964 18.204 4.551 4.551 11.378 7.964 18.204 7.964h433.493v-176.356c0-23.893 9.102-44.373 23.893-60.302l1.138-1.138c15.929-15.929 37.547-26.169 61.44-26.169h176.356v-558.649h1.138zM736.142 391.111v0h-448.284c-12.516 0-22.756-10.24-22.756-22.756s10.24-22.756 22.756-22.756h448.284c12.516 0 22.756 10.24 22.756 22.756s-10.24 22.756-22.756 22.756v0z" />
<glyph unicode="&#xe90e;" glyph-name="jine" d="M512 26.125c-232.608 0-421.875 189.267-421.875 421.875s189.267 421.875 421.875 421.875 421.875-189.267 421.875-421.875-189.267-421.875-421.875-421.875zM512 804.946c-196.848 0-356.946-160.098-356.946-356.946s160.098-356.946 356.946-356.946 356.946 160.098 356.946 356.946-160.098 356.946-356.946 356.946zM512.082 155.901c-17.881 0-32.465 14.502-32.465 32.465v324.563c0 17.88 14.502 32.465 32.465 32.465s32.465-14.502 32.465-32.465v-324.482c-0.083-17.963-14.585-32.547-32.465-32.547zM641.776 415.535h-259.553c-17.88 0-32.465 14.502-32.465 32.465s14.502 32.465 32.465 32.465h259.634c17.88 0 32.465-14.502 32.465-32.465s-14.585-32.465-32.547-32.465zM512 480.465c-8.322 0-16.644 3.213-22.907 9.475-12.69 12.69-12.69 33.206 0 45.895l129.776 129.776c12.69 12.689 33.206 12.689 45.895 0s12.69-33.206 0-45.895l-129.776-129.776c-6.345-6.345-14.667-9.475-22.988-9.475zM512.247 480.547c-8.322 0-16.644 3.213-22.988 9.475l-129.776 129.859c-12.69 12.69-12.69 33.206 0 45.895s33.206 12.69 45.895 0l129.776-129.776c12.69-12.69 12.69-33.206 0-45.895-6.262-6.345-14.585-9.558-22.907-9.558zM641.776 285.759h-259.553c-17.88 0-32.465 14.502-32.465 32.465s14.502 32.465 32.465 32.465h259.634c17.88 0 32.465-14.502 32.465-32.465s-14.585-32.465-32.547-32.465z" />
<glyph unicode="&#xe90f;" glyph-name="nianxian" d="M887.248 745.559h-212.297v71.345c0 28.904-23.516 52.42-52.421 52.42h-221.040c-28.91 0-52.431-23.515-52.431-52.42v-71.345h-212.307c-39.020 0-70.645-31.958-70.645-71.377v-557.711c0-39.408 31.625-71.376 70.645-71.376h750.497c39.063 0 70.645 31.968 70.645 71.376v557.711c0 39.419-31.582 71.377-70.645 71.377zM385.897 816.904c0 8.592 6.994 15.581 15.592 15.581h221.041c8.592 0 15.582-6.989 15.582-15.581v-69.436h-252.214v69.436zM941.629 372.638h-320.164v-14.276c0-9.663-7.815-17.457-17.468-17.457h-180.526c-9.664 0-17.458 7.792-17.458 17.457v14.276h-332.083v32.68h332.084v14.198c0 9.663 7.793 17.457 17.458 17.457h180.526c9.654 0 17.468-7.793 17.468-17.457v-14.198h320.163v-32.68z" />
<glyph unicode="&#xe910;" glyph-name="qianbao" d="M757.695 749.53h-502.56v47.377c0 29.349 24.005 53.136 53.604 53.136h395.352c29.6 0 53.605-23.787 53.605-53.136v-47.377zM176.96 593.185v57.143c0 29.348 31.443 54.531 61.052 54.531h544.255c29.6 0 53.605-23.787 53.605-53.135v-58.539h-658.912zM163.556 548.512h696.888c29.6 0 53.594-23.786 53.594-53.135v-396.296c0-29.338-23.993-53.136-53.594-53.136h-696.888c-29.6 0-53.594 23.798-53.594 53.136v396.296c0 29.348 23.993 53.135 53.594 53.135zM132.298 678.335v-85.15h-7.46c-32.882 0-59.547-26.251-59.547-58.632v-474.646c0-32.37 26.666-58.62 59.547-58.62h774.322c32.894 0 59.548 26.25 59.548 58.62v474.646c0 32.382-26.655 58.632-59.548 58.632h-18.616v85.15c0 32.382-26.666 71.196-59.558 71.196h-18.618v80.27c0 32.38-26.666 64.914-59.559 64.914h-472.786c-32.894 0-59.559-26.251-59.559-58.632v-86.552h-22.336c-32.904 0-55.83-38.815-55.83-71.196zM568.765 295.59c-13.023 12.825-28.377 23.362-45.6 32.064v89.781c5.355 0 21.474 0.686 28.619-5.039 17.45-13.961 16.054-26.524 20.94-42.579h28.618c0 21.311-7.449 45.611-18.845 60.029-11.398 14.434-40.954 18.044-59.33 18.044v22.445h-22.336v-24.735c-18.616-2.289-73.289 1.003-77.129-64.615-3.391-58.087 51.073-65.242 77.129-78.983v-115.39c-5.584 0-16.283 3.927-23.731 10.799-7.678 6.869-20.94 21.682-20.94 48.467l-27.223 4.581c0-31.148 10.241-54.051 23.733-68.927 13.491-15.117 29.545-25.369 48.161-25.369v-43.211h22.336v40.091c15.128 0 76.78 14.702 73.989 86.421-1.516 38.914-28.39 56.124-28.39 56.124zM454.066 386.918c3.141 30.364 40.255 30.517 46.765 30.517v-83.913c-16.055 4.929-51.204 10.513-46.765 53.396zM523.167 186.614v102.563c8.605-6.412 38.227-18.562 40.015-57.498 1.865-40.549-33.504-44.147-40.015-45.065z" />
<glyph unicode="&#xe911;" glyph-name="shezhi" d="M905.295 565.096l-60.191 6.336c-6.656 22.058-15.519 43.421-26.464 63.792l38.105 47.077c15.419 19.054 12.67 48.809-6.261 67.74l-59.28 59.277c-10.351 10.35-24.423 16.287-38.608 16.287-10.961 0-21.035-3.465-29.138-10.021l-47.076-38.105c-20.371 10.945-41.733 19.807-63.791 26.463l-6.34 60.19c-2.568 24.376-25.557 43.471-52.337 43.471h-83.823c-26.778 0-49.767-19.095-52.338-43.472l-6.337-60.188c-22.053-6.654-43.412-15.514-63.787-26.462l-47.086 38.108c-8.099 6.554-18.174 10.019-29.136 10.019-14.187 0-28.259-5.936-38.61-16.288l-59.273-59.27c-18.933-18.934-21.689-48.692-6.268-67.748l38.114-47.074c-10.947-20.371-19.808-41.73-26.464-63.787l-60.202-6.339c-24.375-2.57-43.471-25.557-43.471-52.333v-83.82c0-26.78 19.095-49.77 43.472-52.338l60.196-6.333c6.656-22.055 15.519-43.418 26.463-63.786l-38.111-47.084c-15.419-19.054-12.668-48.811 6.263-67.743l59.275-59.271c10.353-10.355 24.427-16.292 38.613-16.292 10.959 0 21.034 3.465 29.138 10.020l47.079 38.113c20.372-10.945 41.736-19.806 63.787-26.463l6.343-60.191c2.565-24.38 25.55-43.476 52.328-43.476h83.829c26.778 0 49.767 19.092 52.34 43.469l6.335 60.192c22.063 6.657 43.424 15.517 63.791 26.463l47.075-38.098c8.103-6.563 18.184-10.032 29.151-10.032 14.185 0 28.255 5.937 38.6 16.283l59.278 59.278c18.933 18.932 21.687 48.687 6.268 67.74l-38.111 47.078c10.948 20.371 19.812 41.733 26.469 63.787l60.183 6.342c24.383 2.564 43.482 25.551 43.482 52.33v83.825c-0.001 26.776-19.096 49.762-43.474 52.333zM907.453 428.938c0-6.124-3.874-10.969-6.493-11.242l-88.421-9.321-3.564-13.907c-7.147-27.871-18.252-54.634-33.006-79.545l-7.318-12.359 55.981-69.153c1.651-2.042 0.967-8.206-3.366-12.541l-59.28-59.278c-2.58-2.579-6.176-4.178-9.386-4.178-1.356 0-2.504 0.298-3.154 0.823l-69.16 55.973-12.355-7.317c-24.904-14.747-51.669-25.849-79.554-32.996l-13.91-3.566-9.305-88.427c-0.276-2.612-5.123-6.487-11.254-6.487h-83.829c-6.125 0-10.966 3.875-11.241 6.491l-9.317 88.427-13.908 3.566c-27.87 7.145-54.634 18.249-79.552 33l-12.358 7.316-69.153-55.982c-0.645-0.521-1.791-0.821-3.145-0.821-3.212 0-6.815 1.607-9.4 4.191l-59.274 59.27c-4.331 4.332-5.014 10.499-3.362 12.543l55.976 69.159-7.315 12.356c-14.747 24.909-25.85 51.672-32.998 79.548l-3.566 13.91-88.435 9.307c-2.611 0.274-6.484 5.122-6.484 11.252v83.82c0 6.129 3.876 10.972 6.487 11.247l88.435 9.313 3.565 13.909c7.148 27.875 18.251 54.64 33.001 79.55l7.318 12.358-55.983 69.148c-1.653 2.042-0.965 8.209 3.369 12.545l59.273 59.269c2.583 2.583 6.183 4.187 9.396 4.187 1.355 0 2.502-0.299 3.145-0.82l69.161-55.976 12.358 7.316c24.919 14.752 51.683 25.854 79.549 32.997l13.911 3.565 9.309 88.424c0.276 2.613 5.121 6.49 11.252 6.49h83.823c6.128 0 10.974-3.875 11.25-6.487l9.315-88.425 13.908-3.566c27.878-7.148 54.644-18.25 79.555-32.999l12.357-7.318 69.152 55.975c0.644 0.521 1.79 0.82 3.145 0.82 3.212 0 6.812-1.603 9.397-4.187l59.276-59.275c4.332-4.332 5.013-10.497 3.361-12.539l-55.972-69.15 7.315-12.357c14.748-24.909 25.853-51.676 33.003-79.555l3.564-13.908 88.426-9.31c2.611-0.276 6.485-5.12 6.485-11.247v-83.826zM511.999 607.936c-75.591 0-137.088-61.495-137.088-137.081 0-75.588 61.497-137.082 137.088-137.082 75.589 0 137.088 61.496 137.088 137.082s-61.499 137.081-137.088 137.081zM511.999 375.085c-52.81 0-95.773 42.959-95.773 95.768s42.963 95.769 95.773 95.769 95.773-42.962 95.773-95.769c0-52.809-42.963-95.768-95.773-95.768z" />
<glyph unicode="&#xe912;" glyph-name="notice" d="M885.952 223.136c-11.488 15.616-24.256 34.368-38.432 56.064-13.728 20.832-26.848 44.32-39.168 70.112-11.936 24.512-22.592 51.552-31.616 80.448-8.192 26.56-12.32 54.112-12.32 81.792 0 33.664-4.768 64.768-14.24 92.384-9.216 27.424-21.856 52.384-37.664 74.432-15.936 21.856-35.040 40.512-56.768 55.424-19.744 13.664-41.408 24.32-67.392 33.088 5.344 11.488 8.512 24.192 8.512 37.728 0 49.984-40.64 90.624-90.624 90.624s-90.624-40.64-90.624-90.624c0-13.408 3.104-26.112 8.384-37.536-2.336-0.576-5.088-1.024-7.168-1.6-22.176-7.68-43.936-18.976-65.216-33.856-21.152-15.296-39.552-33.536-54.816-53.984-16.064-21.472-28.96-46.176-38.304-73.344-9.92-28.128-14.848-59.68-14.848-93.728 0-28.64-4.128-56.448-12.256-82.368-8.896-27.872-19.424-54.496-31.296-79.264-11.36-23.808-24-46.944-38.56-70.496-14.464-23.232-26.912-44.192-36.768-61.664-17.856-27.744-10.848-50.944-5.024-61.28 9.856-17.152 26.336-28.576 46.56-28.576h675.488c9.28 0 18.432 4.512 26.4 9.216 8.256 4.512 15.296 12.192 20.256 19.872 5.664 8.512 8.896 18.784 9.472 29.728 0.8 12.96-3.328 25.92-11.968 37.408v0zM506.304 831.776c14.912 0 27.104-12.128 27.104-27.104s-12.192-27.104-27.104-27.104c-14.912 0-27.104 12.192-27.104 27.104s12.128 27.104 27.104 27.104v0zM185.056 190.496c8.96 0 19.040 34.24 30.432 52.576 15.872 25.6 29.536 51.616 41.856 77.536 13.088 27.232 24.704 57.088 34.592 87.936 10.112 32.32 15.232 66.752 15.232 101.792 0 26.88 3.808 51.424 11.36 73.024 7.232 21.152 17.024 40 29.152 56.256 11.424 15.36 25.28 29.088 40.704 40.256 16.192 11.36 32.32 19.744 47.616 25.088 6.976 2.016 28.576 4.448 66.496 4.448 35.552 0 63.552-2.016 65.536-2.144 18.432-6.112 35.68-14.656 51.584-25.728 15.808-10.912 29.792-24.576 41.344-40.448 12-16.704 21.792-36 28.96-57.472 7.168-21.152 10.848-45.408 10.848-72.064 0-34.048 5.088-67.872 15.168-100.576 9.984-32.064 21.856-62.176 35.104-89.28 13.536-28.128 28.064-56.192 43.232-79.264 12.192-18.592 23.296-51.936 33.984-51.936h-643.2zM347.552 63.488h317.536v-63.488h-317.536v63.488z" />
<glyph unicode="&#xe913;" glyph-name="tongzhi" d="M905.846 566.154c0 131.86 0 245.169 0 275.692 0 78.769-40.015 78.769-78.769 78.769-78.139 0-83.692-315.077-512-315.077h-196.923c-65.221 0-118.154-52.933-118.154-118.154v-78.769c0-65.221 52.933-118.154 118.154-118.154h196.923c430.789 0 432.482-315.077 512-315.077 0.63 0 1.221 0 1.851 0 39.936 0 76.918 0.63 76.918 78.769 0 30.72 0 143.951 0 275.692 65.221 0 118.154 52.933 118.154 118.154 0 65.26-52.933 118.154-118.154 118.154zM118.154 448c0 78.257 58.565 78.769 58.565 78.769h138.358v-78.769h-196.923zM827.077 89.521c-55.060 92.711-154.348 250.998-433.231 276.283v164.431c277.386 25.324 377.62 183.257 433.231 276.086v-716.8zM315.077-24.615h-78.769c-21.701 0-43.481 17.684-48.482 39.385l-64 236.308h188.495c0 0-36.51-109.45 13.273-149.307 71.877-57.541 53.090-128.315-10.516-126.385zM472.615 487.385c152.261 0 275.692 115.83 275.692 115.83v-120.123c0 0-124.258-35.131-275.692-35.131v39.424z" />
<glyph unicode="&#xe914;" glyph-name="search" d="M1020.21 69.113l-271.099 271.094c39.64 62.479 62.631 136.51 62.631 215.818 0.005 222.752-181.218 403.975-403.975 403.975-222.752 0-403.975-181.223-403.975-403.975s181.223-403.975 403.975-403.975c75.373 0 145.975 20.768 206.428 56.857l272.903-272.906 133.113 133.113zM154.388 556.025c0 139.714 113.664 253.38 253.378 253.38s253.38-113.666 253.38-253.38-113.666-253.378-253.38-253.378-253.378 113.664-253.378 253.378z" />
<glyph unicode="&#xe915;" glyph-name="vTag" d="M536.269 852.905c-225.275 0-407.895-182.62-407.895-407.895 0-225.27 182.62-407.89 407.895-407.89s407.895 182.62 407.895 407.89c0 225.28-182.62 407.895-407.895 407.895zM727.895 403.809c-31.596-46.008-75.013-101.268-112.932-133.898-27.494-23.66-78.295-60.268-118.313-53.56-103.101 17.27-81.147 269.752-150.584 326.707-31.754 9.211-47.068-39.48-64.532-10.706-27.433 22.835 26.44 62.72 53.775 85.688 33.802 28.401 73.651 68.854 118.313 51.272 86.968-34.243 24.627-241.772 107.556-286.935 42.86 34.381 90.88 91.197 80.671 160.676-8.12 23.199-47.386 15.831-69.908 10.711-1.157 105.969 208.543 187.192 225.864 42.844 9.411-88.356-69.908-192.799-69.908-192.799z" />
<glyph unicode="&#xe916;" glyph-name="error" d="M809.223 809.469l59.465-59.474-300.29-300.287 300.29-300.295-59.465-59.468-300.29 300.284-300.288-300.284-59.475 59.468 300.291 300.295-300.291 300.287 59.475 59.474 300.288-300.292z" />
<glyph unicode="&#xe917;" glyph-name="share" horiz-adv-x="1304" d="M1117.936 442.026c-18.747 0-33.941-15.198-33.941-33.941v-320.887c0-41.176-33.499-74.677-74.676-74.677h-716.244c-41.176 0-74.669 33.501-74.669 74.677v673.81c0 41.176 33.493 74.669 74.669 74.669h233.462c18.741 0 33.939 15.198 33.939 33.947 0 18.742-15.198 33.94-33.939 33.94h-233.462c-78.603 0-142.557-63.949-142.557-142.557v-673.81c0-78.61 63.954-142.557 142.557-142.557h716.244c78.61 0 142.557 63.947 142.557 142.557v320.887c0 18.742-15.191 33.941-33.941 33.941v0zM405.657 243.133c-3.375-18.444 8.836-36.13 27.273-39.505 2.066-0.377 4.121-0.557 6.155-0.557 16.067 0 30.345 11.46 33.345 27.831 0.259 1.426 27.189 144.177 120.919 286.099 54.54 82.587 120.634 148.259 196.444 195.2 72.357 44.805 154.14 72.694 243.951 83.331l-110.502-114.006c-13.047-13.462-12.711-34.951 0.751-47.998 6.589-6.388 15.107-9.569 23.613-9.569 8.87 0 17.726 3.453 24.378 10.321l171.076 176.497c0.123 0.129 0.239 0.265 0.363 0.401 0.174 0.181 0.348 0.37 0.517 0.557 0.187 0.207 0.37 0.421 0.557 0.635 0.027 0.032 0.051 0.065 0.078 0.090 0.168 0.207 0.337 0.408 0.506 0.615 0.181 0.221 0.362 0.448 0.531 0.675 0.168 0.214 0.323 0.428 0.486 0.64 0.187 0.26 0.375 0.526 0.557 0.784 0.116 0.176 0.239 0.357 0.356 0.531 0.116 0.176 0.239 0.35 0.348 0.532 0.040 0.058 0.078 0.129 0.124 0.194 0.025 0.045 0.058 0.098 0.085 0.149 0.11 0.167 0.212 0.343 0.317 0.517 0.174 0.305 0.35 0.604 0.517 0.901 0.098 0.176 0.189 0.35 0.279 0.519 0.033 0.065 0.071 0.129 0.104 0.194 0.123 0.245 0.252 0.493 0.375 0.738 0.098 0.207 0.196 0.415 0.292 0.622 0.136 0.285 0.266 0.564 0.39 0.856 0.103 0.232 0.194 0.466 0.29 0.707 0.111 0.265 0.214 0.531 0.318 0.796 0.096 0.265 0.194 0.531 0.285 0.798 0.083 0.245 0.167 0.491 0.245 0.731 0.098 0.292 0.188 0.589 0.272 0.881 0.065 0.234 0.13 0.461 0.194 0.693 0.085 0.305 0.163 0.615 0.234 0.927 0.045 0.188 0.091 0.375 0.136 0.564 0.013 0.051 0.020 0.109 0.033 0.161 0.065 0.292 0.123 0.59 0.181 0.887 0.032 0.169 0.065 0.343 0.098 0.512 0.018 0.136 0.038 0.265 0.065 0.401 0.032 0.234 0.065 0.466 0.103 0.7 0.020 0.149 0.045 0.305 0.065 0.46 0.026 0.221 0.051 0.434 0.078 0.655 0.013 0.129 0.020 0.259 0.033 0.381 0.011 0.118 0.025 0.227 0.031 0.343 0.007 0.066 0.013 0.131 0.020 0.196 0.020 0.297 0.038 0.589 0.058 0.887 0 0.045 0 0.091 0.007 0.136 0.007 0.181 0.013 0.363 0.020 0.544 0 0 0 0.013 0.005 0.020 0.007 0.362 0.013 0.718 0.013 1.081v0.038c0 0.557-0.013 1.108-0.038 1.665-0.007 0.046-0.007 0.091-0.013 0.136-0.007 0.104-0.007 0.207-0.013 0.305 0 0.013 0 0.026 0 0.026-0.025 0.395-0.058 0.776-0.096 1.159-0.013 0.116-0.027 0.232-0.040 0.344v0.006c-0.007 0.058-0.007 0.116-0.013 0.174-0.045 0.35-0.089 0.7-0.143 1.050-0.018 0.149-0.038 0.305-0.065 0.454-0.007 0.065-0.018 0.123-0.032 0.187-0.045 0.297-0.104 0.589-0.156 0.881-0.038 0.194-0.078 0.388-0.116 0.577 0 0.032-0.013 0.058-0.020 0.083-0.013 0.066-0.026 0.124-0.038 0.182-0.047 0.221-0.098 0.434-0.149 0.647-0.085 0.356-0.176 0.713-0.272 1.070-0.040 0.136-0.078 0.272-0.118 0.408-0.116 0.415-0.245 0.829-0.381 1.237-0.027 0.078-0.052 0.156-0.078 0.234-0.098 0.292-0.187 0.582-0.299 0.874-0.012 0.033-0.025 0.065-0.038 0.098-0.045 0.129-0.098 0.252-0.149 0.375-0.013 0.046-0.032 0.085-0.051 0.129-0.116 0.305-0.234 0.61-0.356 0.907-0.071 0.169-0.156 0.337-0.227 0.506-0.007 0.013-0.013 0.026-0.013 0.026-0.141 0.317-0.272 0.622-0.42 0.925 0 0-0.007 0.013-0.007 0.020-0.318 0.66-0.668 1.309-1.030 1.95v0.007c-0.26 0.459-0.532 0.912-0.811 1.366-0.031 0.045-0.065 0.091-0.089 0.136-0.163 0.252-0.325 0.511-0.493 0.765l-0.033 0.045c-0.085 0.123-0.167 0.247-0.259 0.377s-0.194 0.265-0.292 0.401c-0.071 0.098-0.143 0.201-0.214 0.299-0.071 0.096-0.136 0.194-0.207 0.284-0.071 0.098-0.143 0.196-0.221 0.292-0.174 0.234-0.362 0.461-0.544 0.687-0.096 0.118-0.188 0.234-0.285 0.35-0.051 0.071-0.11 0.136-0.161 0.207-0.234 0.265-0.473 0.532-0.707 0.798-0.065 0.071-0.123 0.143-0.187 0.207-0.325 0.362-0.662 0.711-1.005 1.055-0.025 0.033-0.058 0.060-0.090 0.091-0.363 0.363-0.733 0.72-1.114 1.070-0.020 0.012-0.033 0.025-0.046 0.038-0.388 0.35-0.776 0.687-1.179 1.017-0.018 0.020-0.045 0.040-0.065 0.060-0.381 0.31-0.771 0.615-1.166 0.912-0.051 0.040-0.103 0.085-0.161 0.124-0.356 0.265-0.72 0.517-1.089 0.77-0.103 0.078-0.207 0.149-0.317 0.221-0.181 0.123-0.363 0.247-0.551 0.363-0.143 0.098-0.292 0.181-0.441 0.272-0.168 0.104-0.33 0.207-0.499 0.305-0.148 0.089-0.29 0.181-0.439 0.265-0.163 0.090-0.323 0.174-0.486 0.265-0.194 0.11-0.395 0.214-0.59 0.317-0.284 0.156-0.569 0.299-0.854 0.441-0.221 0.109-0.441 0.207-0.662 0.31-0.272 0.131-0.544 0.254-0.816 0.37-0.245 0.111-0.499 0.214-0.751 0.312-0.245 0.103-0.499 0.207-0.751 0.297-0.279 0.111-0.557 0.207-0.843 0.305-0.227 0.085-0.459 0.162-0.687 0.234-0.149 0.051-0.292 0.096-0.441 0.141l-249.151 82.6c-17.797 5.902-37.005-3.745-42.9-21.534-5.902-17.797 3.745-36.999 21.533-42.9l100.208-33.222c-73.659-15.916-142.006-43.269-204.348-81.867-84.225-52.157-157.354-124.657-217.35-215.503-101.282-153.364-129.878-304.906-131.044-311.281v0z" />
<glyph unicode="&#xe918;" glyph-name="warning" horiz-adv-x="1025" d="M512.019 867.232l429.088-855.232h-858.208l429.088 855.232zM512.019 960c-22.080 0-44.128-14.88-60.896-44.64l-437.088-871.104c-33.472-59.52-4.992-108.256 63.296-108.256h869.312c68.288 0 96.8 48.704 63.296 108.256v0l-437.088 871.104c-16.736 29.76-38.816 44.64-60.896 44.64v0zM576.019 128c0-35.36-28.64-64-64-64s-64 28.64-64 64c0 35.36 28.64 64 64 64s64-28.64 64-64zM512.019 256c-35.36 0-64 28.64-64 64v192c0 35.36 28.64 64 64 64s64-28.64 64-64v-192c0-35.36-28.64-64-64-64z" />
<glyph unicode="&#xe919;" glyph-name="vipuser" d="M573.446 525.625c-26.929-11.086-51.613-25.868-74.055-44.346-22.442-18.48-41.843-39.601-58.211-63.361-16.366-23.757-29.040-49.763-38.015-78.012-8.976-28.247-13.465-57.948-13.465-89.098 0-27.457 3.566-53.721 10.693-78.8 7.125-25.081 17.027-48.713 29.701-70.885h-21.385c-15.31 0-33.127 0.524-53.458 1.582-20.325 1.057-41.312 2.511-62.961 4.359-21.646 1.844-43.166 3.96-64.547 6.33-21.387 2.377-40.789 4.889-58.211 7.526-17.427 2.637-32.211 5.28-44.353 7.922-12.146 2.634-19.801 5.277-22.965 7.917-5.809 4.226-10.162 17.292-13.070 39.201-2.901 21.915-1.716 50.034 3.564 84.347 2.108 13.201 6.471 24.030 13.065 32.474 6.604 8.449 14.654 15.706 24.16 21.776 9.501 6.075 20.064 10.959 31.682 14.654 11.613 3.697 23.494 7.26 35.64 10.695 12.141 3.433 23.889 7.129 35.237 11.090 11.355 3.959 21.782 8.841 31.287 14.649 11.086 6.867 19.669 13.598 25.739 20.196 6.070 6.6 10.434 13.066 13.069 19.406 2.641 6.33 3.958 12.933 3.958 19.798s-0.261 14.517-0.794 22.966c-1.056 12.144-5.277 21.777-12.67 28.905-7.393 7.126-15.573 14.393-24.551 21.78-4.224 3.697-8.049 8.844-11.484 15.449-3.43 6.595-6.466 13.327-9.106 20.192-2.641 7.922-5.277 16.099-7.918 24.554-3.698 1.052-7.393 2.902-11.090 5.543-3.168 2.636-6.6 6.332-10.295 11.086-3.698 4.753-6.861 11.618-9.502 20.596-2.641 8.973-3.702 17.156-3.169 24.546 0.528 7.393 2.108 13.996 4.749 19.801 2.117 5.809 5.543 11.356 10.299 16.632 0 20.064 1.052 40.127 3.164 60.191 2.113 16.899 5.809 35.112 11.091 54.648 5.28 19.54 13.464 36.963 24.55 52.274 10.562 14.787 21.913 26.795 34.055 36.035 12.146 9.24 24.817 16.499 38.018 21.775 13.198 5.286 26.263 8.845 39.2 10.697 12.936 1.849 25.474 2.772 37.616 2.772 15.316 0 30.493-1.716 45.542-5.148 15.048-3.434 29.174-8.051 42.372-13.86 13.202-5.808 24.944-12.409 35.245-19.801 10.291-7.392 18.347-14.782 24.151-22.175 13.73-16.895 23.76-35.507 30.097-55.833 6.337-20.33 10.829-39.733 13.462-58.215 2.644-21.116 3.962-42.501 3.962-64.15 3.697-2.641 6.599-6.071 8.712-10.295 2.113-3.698 3.83-8.45 5.148-14.255 1.322-5.808 1.455-12.937 0.399-21.385-1.057-11.619-3.302-20.726-6.733-27.325-3.434-6.599-7.259-11.746-11.488-15.442-4.749-4.222-9.765-7.129-15.045-8.712-1.057-3.165-2.113-6.604-3.165-10.291l-3.963-11.095c-1.058-3.693-2.381-7.651-3.96-11.88v0 0zM686.696 500.289c34.322 0 66.66-6.603 97.020-19.8 30.359-13.203 56.763-31.154 79.197-53.856 22.443-22.704 40.265-49.233 53.459-79.592 13.202-30.364 19.801-62.698 19.801-97.023 0-34.32-6.594-66.658-19.801-97.018-13.199-30.359-31.016-56.884-53.459-79.59-22.434-22.709-48.838-40.53-79.197-53.463-30.36-12.936-62.698-19.4-97.020-19.4-34.847 0-67.451 6.469-97.81 19.4-30.356 12.937-56.76 30.754-79.198 53.463-22.439 22.706-40.26 49.234-53.458 79.59-13.202 30.36-19.801 62.698-19.801 97.018 0 34.324 6.6 66.659 19.801 97.023 13.198 30.359 31.019 56.888 53.458 79.592 22.438 22.702 48.842 40.653 79.198 53.856 30.359 13.198 62.963 19.8 97.81 19.8v0 0zM832.421 299.122c3.173 10.556 1.717 20.192-4.354 28.91-6.071 8.711-14.121 14.914-24.155 18.61-10.030 3.694-20.063 3.959-30.098 0.791-10.029-3.169-17.418-11.353-22.171-24.55-2.641-8.978-5.147-17.292-7.527-24.954-2.374-7.652-4.753-15.702-7.127-24.151-2.374-8.451-5.276-17.554-8.712-27.329-3.43-9.765-7.788-20.986-13.068-33.657-5.278-13.725-12.804-20.196-22.571-19.4-9.768 0.792-17.291 6.463-22.571 17.026-5.809 10.561-11.224 21.91-16.234 34.052-5.019 12.146-9.901 24.032-14.654 35.639-4.756 11.619-8.977 22.183-12.674 31.682-3.693 9.507-6.861 17.164-9.506 22.977-4.22 8.443-11.214 13.194-20.982 14.248-9.768 1.056-19.278-0.396-28.513-4.352-9.24-3.96-16.895-10.167-22.967-18.614-6.070-8.45-6.997-17.689-2.772-27.719 3.697-10.562 7.917-22.442 12.669-35.64 4.749-13.201 9.773-26.665 15.049-40.393 5.281-13.726 10.292-27.191 15.049-40.393 4.753-13.197 8.973-24.55 12.671-34.052 7.92-20.063 19.934-35.115 36.034-45.144 16.11-10.036 33-15.314 50.69-15.839 17.684-0.53 34.583 3.434 50.688 11.878 16.106 8.448 27.853 21.12 35.241 38.015 5.809 13.726 11.752 28.113 17.818 43.165 6.075 15.041 11.885 29.699 17.431 43.955 5.539 14.256 10.692 27.986 15.44 41.185 4.753 13.201 8.712 24.551 11.88 34.054v0 0z" />
<glyph unicode="&#xe91a;" glyph-name="jiahao" d="M803.994 496h-243.994v243.994c0 26.4-21.6 48-48 48v0c-26.4 0-48-21.6-48-48v-243.994h-243.994c-26.4 0-48-21.6-48-48v0c0-26.4 21.6-48 48-48h243.994v-243.994c0-26.4 21.6-48 48-48v0c26.4 0 48 21.6 48 48v243.994h243.994c26.4 0 48 21.6 48 48v0c0 26.4-21.6 48-48 48z" />
<glyph unicode="&#xe91b;" glyph-name="you" d="M362.485 773.705h153.407l246.913-318.136-253.823-309.736h-146.277l250.031 309.736z" />
<glyph unicode="&#xe91e;" glyph-name="top" d="M986.536 277.411l-442.394 453.436c-9.485 9.556-22.118 13.6-34.537 12.956-12.457 0.644-25.055-3.399-34.575-12.956l-442.394-453.436c-17.823-17.896-17.823-46.884 0-64.776 17.824-17.895 46.741-17.895 64.529 0l412.441 420.582 412.366-420.582c17.825-17.895 46.741-17.895 64.565 0 17.785 17.891 17.785 46.881-0.001 64.776z" />
<glyph unicode="&#xe91f;" glyph-name="bottom" d="M51.008 689.6c-26.816-26.944-26.816-70.592 0-97.472l412.16-412.48c13.44-13.376 31.104-20.096 48.768-20.096s35.264 6.72 48.704 20.096l412.096 412.48c26.944 26.88 26.944 70.528 0 97.472-26.816 26.88-70.4 26.88-97.216 0l-363.712-363.904-363.52 363.904c-26.752 26.816-70.336 26.816-97.28 0z" />
</font>
</defs>
</svg>
